# xmcd
#
# Track frame offsets:
#	150
#	18262
#	40871
#	56102
#	73047
#	88812
#	128877
#	144808
#	170143
#
# Disc length: 2553 seconds
#
# Revision: 2
# Processed by: cddbd v1.5PL3 Copyright (c) Steve Scherf et al.
# Submitted via: audiograbber 1.82.02
#
DISCID=7c09f709
DTITLE=Electric Flag - The Best Of Electric Flag
DYEAR=2002
DGENRE=Blues
TTITLE0=It's Not The Spotlight
TTITLE1=I Was Robbed Last Night
TTITLE2=I Found Out
TTITLE3=Never Be Lonely Again
TTITLE4=Losing Game
TTITLE5=My Baby Wants To Test Me
TTITLE6=I Should Have Left Her
TTITLE7=You Don't Realize
TTITLE8=Groovin' Is Easy
EXTD=
EXTT0=
EXTT1=
EXTT2=
EXTT3=
EXTT4=
EXTT5=
EXTT6=
EXTT7=
EXTT8=
PLAYORDER=
